# xmcd
#
# Track frame offsets:
#	150
#	17977
#	35835
#	54042
#	74732
#	90590
#	116265
#	135150
#	155315
#	168587
#
# Disc length: 2399 seconds
#
# Revision: 1
# Processed by: cddbd v1.5.1PL0 Copyright (c) Steve Scherf et al.
# Submitted via: CDex 1.50Beta5
#
DISCID=7b095d0a
DTITLE=ルースターズ - PASSENGER
DYEAR=1989
DGENRE=Pop
TTITLE0=パッセンジャー
TTITLE1=ハート・バイ・ラブ
TTITLE2=バーニング・ブルー
TTITLE3=グッド・ナイト,グッド・モーニング
TTITLE4=ウォッチ・ユア・ステップ
TTITLE5=ウイング
TTITLE6=ア・レ
TTITLE7=セイレーン
TTITLE8=ストレンジ・ライフ
TTITLE9=レック・マイ・カー
EXTD=
EXTT0=
EXTT1=
EXTT2=
EXTT3=
EXTT4=
EXTT5=
EXTT6=
EXTT7=
EXTT8=
EXTT9=
PLAYORDER=
